<svg xmlns="http://www.w3.org/2000/svg" width="42.8" height="29.6" viewBox="0 0 42.8 29.6">
  <path id="Path_22" data-name="Path 22" d="M12-72.2q5.4,0,7.9,3.7a12.419,12.419,0,0,1,1.8,4,20.357,20.357,0,0,1,.7,5.5,18.011,18.011,0,0,1-2.7,9.6,17.644,17.644,0,0,1-7.9,6.8l-.9-1.8a14.458,14.458,0,0,0,4.65-3.45A12.912,12.912,0,0,0,18.4-52.6a9.818,9.818,0,0,0,.5-3.3,8.741,8.741,0,0,0-.2-2.2A9,9,0,0,1,11.4-55,8.979,8.979,0,0,1,5-57.25,8.28,8.28,0,0,1,2.6-63.6a8.015,8.015,0,0,1,2.6-6.25A9.752,9.752,0,0,1,12-72.2Zm23,0q5.4,0,7.9,3.7a12.419,12.419,0,0,1,1.8,4,20.357,20.357,0,0,1,.7,5.5,18.011,18.011,0,0,1-2.7,9.6,17.644,17.644,0,0,1-7.9,6.8l-.9-1.8a14.458,14.458,0,0,0,4.65-3.45A12.912,12.912,0,0,0,41.4-52.6a9.818,9.818,0,0,0,.5-3.3,8.741,8.741,0,0,0-.2-2.2A9,9,0,0,1,34.4-55,8.979,8.979,0,0,1,28-57.25a8.28,8.28,0,0,1-2.4-6.35,8.015,8.015,0,0,1,2.6-6.25A9.752,9.752,0,0,1,35-72.2Z" transform="translate(-2.6 72.2)" fill="#a841ff"/>
</svg>
