<svg xmlns="http://www.w3.org/2000/svg" width="42.8" height="29.6" viewBox="0 0 42.8 29.6">
  <path id="Path_21" data-name="Path 21" d="M37.1-43.4q-5.4,0-7.9-3.7a12.419,12.419,0,0,1-1.8-4,20.357,20.357,0,0,1-.7-5.5,18.011,18.011,0,0,1,2.7-9.6A17.644,17.644,0,0,1,37.3-73l.9,1.8a14.458,14.458,0,0,0-4.65,3.45A12.912,12.912,0,0,0,30.7-63a9.818,9.818,0,0,0-.5,3.3,8.741,8.741,0,0,0,.2,2.2,9,9,0,0,1,7.3-3.1,8.979,8.979,0,0,1,6.4,2.25A8.28,8.28,0,0,1,46.5-52a8.015,8.015,0,0,1-2.6,6.25A9.752,9.752,0,0,1,37.1-43.4Zm-23,0q-5.4,0-7.9-3.7a12.419,12.419,0,0,1-1.8-4,20.357,20.357,0,0,1-.7-5.5,18.011,18.011,0,0,1,2.7-9.6A17.644,17.644,0,0,1,14.3-73l.9,1.8a14.458,14.458,0,0,0-4.65,3.45A12.912,12.912,0,0,0,7.7-63a9.818,9.818,0,0,0-.5,3.3,8.741,8.741,0,0,0,.2,2.2,9,9,0,0,1,7.3-3.1,8.979,8.979,0,0,1,6.4,2.25A8.28,8.28,0,0,1,23.5-52a8.015,8.015,0,0,1-2.6,6.25A9.752,9.752,0,0,1,14.1-43.4Z" transform="translate(-3.7 73)" fill="#a841ff"/>
</svg>
