<svg height="29.6" viewBox="0 0 42.8 29.6" width="42.8" xmlns="http://www.w3.org/2000/svg"><path d="m12-72.2q5.4 0 7.9 3.7a12.419 12.419 0 0 1 1.8 4 20.357 20.357 0 0 1 .7 5.5 18.011 18.011 0 0 1 -2.7 9.6 17.644 17.644 0 0 1 -7.9 6.8l-.9-1.8a14.458 14.458 0 0 0 4.65-3.45 12.912 12.912 0 0 0 2.85-4.75 9.818 9.818 0 0 0 .5-3.3 8.741 8.741 0 0 0 -.2-2.2 9 9 0 0 1 -7.3 3.1 8.979 8.979 0 0 1 -6.4-2.25 8.28 8.28 0 0 1 -2.4-6.35 8.015 8.015 0 0 1 2.6-6.25 9.752 9.752 0 0 1 6.8-2.35zm23 0q5.4 0 7.9 3.7a12.419 12.419 0 0 1 1.8 4 20.357 20.357 0 0 1 .7 5.5 18.011 18.011 0 0 1 -2.7 9.6 17.644 17.644 0 0 1 -7.9 6.8l-.9-1.8a14.458 14.458 0 0 0 4.65-3.45 12.912 12.912 0 0 0 2.85-4.75 9.818 9.818 0 0 0 .5-3.3 8.741 8.741 0 0 0 -.2-2.2 9 9 0 0 1 -7.3 3.1 8.979 8.979 0 0 1 -6.4-2.25 8.28 8.28 0 0 1 -2.4-6.35 8.015 8.015 0 0 1 2.6-6.25 9.752 9.752 0 0 1 6.8-2.35z" fill="#a841ff" transform="translate(-2.6 72.2)"/></svg>